# xmcd
#
# Track frame offsets:
# 150
# 16293
# 35714
# 47242
# 61787
# 79956
# 91685
# 105725
# 122483
# 133247
# 145900
# 161227
#
# Disc length: 2568 seconds
#
#
# Revision: 0
# Processed by: cddbd v1.5.2PL0 Copyright (c) Steve Scherf et al.
# Submitted via: FreeRIP 2.951 
#
DISCID=a20a060c
DTITLE=Amy Winehouse - Back to Black
DYEAR=2006
DGENRE=R&B
TTITLE0=Rehab
TTITLE1=You Know I'm No Good
TTITLE2=Me and Mr. Jones
TTITLE3=Just Friends
TTITLE4=Back to Black
TTITLE5=Love Is a Losing Game
TTITLE6=Tears Dry On Their Own
TTITLE7=Wake Up Alone
TTITLE8=Some Unholy War
TTITLE9=He Can Only Hold Her
TTITLE10=You Know I'm No Good (feat. Ghostface Killah)
TTITLE11=Rehab (feat. Hot Chip)
EXTD=
EXTT0=
EXTT1=
EXTT2=
EXTT3=
EXTT4=
EXTT5=
EXTT6=
EXTT7=
EXTT8=
EXTT9=
EXTT10=
EXTT11=
PLAYORDER=
